<svg xmlns="http://www.w3.org/2000/svg" viewBox="0 0 900 1125" role="img" aria-label="Más especialidades Montparnasse">
  <defs>
    <linearGradient id="bg" x1="0" y1="0" x2="1" y2="1">
      <stop offset="0" stop-color="#fff8f2"/>
      <stop offset="0.55" stop-color="#f1e1ef"/>
      <stop offset="1" stop-color="#6e2c76"/>
    </linearGradient>
    <radialGradient id="halo" cx="45%" cy="40%" r="50%">
      <stop offset="0" stop-color="#fff" stop-opacity=".78"/>
      <stop offset="1" stop-color="#fff" stop-opacity="0"/>
    </radialGradient>
  </defs>
  <rect width="900" height="1125" rx="40" fill="url(#bg)"/>
  <circle cx="450" cy="430" r="300" fill="url(#halo)"/>
  <path d="M170 160 C360 60 520 95 725 185" stroke="#d2ad67" stroke-width="7" fill="none" opacity=".78"/>
  <g transform="translate(235 305)">
    <ellipse cx="215" cy="365" rx="235" ry="45" fill="#2a0c28" opacity=".12"/>
    <path d="M80 210c0-74 60-134 135-134s135 60 135 134v170c0 31-25 56-56 56H136c-31 0-56-25-56-56V210z" fill="#fff7f0" stroke="#e6d6c9" stroke-width="5"/>
    <path d="M80 330h270v52c0 31-25 56-56 56H136c-31 0-56-25-56-56v-52z" fill="#612058"/>
    <path d="M115 330c45 20 92 28 143 24 39-3 71-12 92-24" stroke="#d2ad67" stroke-width="8" fill="none" opacity=".95"/>
    <path d="M113 206c45 35 151 46 234 0" stroke="#b990c0" stroke-width="12" stroke-linecap="round" fill="none"/>
    <circle cx="160" cy="175" r="16" fill="#d84d70"/>
    <circle cx="218" cy="165" r="15" fill="#df6b85"/>
    <circle cx="270" cy="177" r="13" fill="#d2ad67"/>
  </g>
  <text x="450" y="860" text-anchor="middle" font-family="Georgia,serif" font-size="50" fill="#2a0c28">Más especialidades</text>
  <text x="450" y="918" text-anchor="middle" font-family="Arial,sans-serif" font-size="24" fill="#6c506b">Montparnasse Pastelería</text>
  <path d="M35 35h830v1055H35z" fill="none" stroke="#d2ad67" stroke-width="4" opacity=".85"/>
</svg>