<svg xmlns="http://www.w3.org/2000/svg" viewBox="0 0 1200 900" role="img" aria-label="Placeholder premium Eventos">
  <defs>
    <linearGradient id="bg" x1="0" y1="0" x2="1" y2="1"><stop offset="0" stop-color="#FFF8F1"/><stop offset="1" stop-color="#E9D6EF"/></linearGradient>
    <filter id="s" x="-20%" y="-20%" width="140%" height="140%"><feDropShadow dx="0" dy="22" stdDeviation="25" flood-color="#321832" flood-opacity=".18"/></filter>
  </defs>
  <rect width="1200" height="900" fill="url(#bg)"/>
  <circle cx="180" cy="140" r="110" fill="#321832" opacity=".08"/>
  <circle cx="1020" cy="760" r="150" fill="#C9A15A" opacity=".12"/>
  <ellipse cx="600" cy="700" rx="335" ry="52" fill="#321832" opacity=".10"/>
  <g filter="url(#s)">
    <rect x="380" y="395" width="440" height="240" rx="38" fill="#FFF8F1"/>
    <rect x="410" y="425" width="380" height="180" rx="28" fill="#321832" opacity=".72"/>
    <path d="M600 425v180M410 515h380" stroke="#FFF8F1" stroke-width="24" opacity=".75"/>
    <path d="M552 406c-42-35-92-12-75 25 22 47 91 21 123 0 32 21 101 47 123 0 17-37-33-60-75-25" fill="none" stroke="#C9A15A" stroke-width="20" stroke-linecap="round"/>
  </g>
  <text x="600" y="742" text-anchor="middle" font-family="Georgia, serif" font-size="44" font-weight="700" fill="#321832">Eventos</text>
  <text x="600" y="782" text-anchor="middle" font-family="Arial, sans-serif" font-size="18" fill="#8C6B83">PLACEHOLDER · reemplazar por fotografía oficial</text>
</svg>