<svg xmlns="http://www.w3.org/2000/svg" viewBox="0 0 720 720" role="img" aria-label="Chocolates Mixtos">
  <defs>
    <linearGradient id="bg" x1="0" y1="0" x2="1" y2="1">
      <stop offset="0" stop-color="#FFF8F1"/>
      <stop offset=".52" stop-color="#E6C2A8" stop-opacity=".78"/>
      <stop offset="1" stop-color="#FFFFFF"/>
    </linearGradient>
    <radialGradient id="glow" cx="50%" cy="52%" r="55%">
      <stop offset="0" stop-color="#FFFFFF" stop-opacity=".9"/>
      <stop offset="1" stop-color="#3B201A" stop-opacity=".12"/>
    </radialGradient>
    <filter id="shadow" x="-20%" y="-20%" width="140%" height="140%"><feDropShadow dx="0" dy="18" stdDeviation="20" flood-color="#321832" flood-opacity=".18"/></filter>
  </defs>
  <rect width="720" height="720" rx="64" fill="url(#bg)"/>
  <circle cx="360" cy="386" r="226" fill="url(#glow)"/>
  <path d="M76 106 C192 38 322 80 438 54 C552 28 632 76 654 160" fill="none" stroke="#C9A15A" stroke-width="3" opacity=".35"/>
  <g filter="url(#shadow)">
        <ellipse cx="360" cy="492" rx="130" ry="62" fill="#E6C2A8"/>
        <ellipse cx="360" cy="492" rx="130" ry="62" fill="none" stroke="#3B201A" stroke-width="10" opacity=".35"/>
        <circle cx="306" cy="470" r="12" fill="#3B201A" opacity=".45"/><circle cx="360" cy="508" r="10" fill="#C9A15A"/><circle cx="412" cy="468" r="11" fill="#3B201A" opacity=".35"/>
        <path d="M272 516 C322 548 402 550 450 516" fill="none" stroke="#C9A15A" stroke-width="7" stroke-linecap="round" opacity=".8"/>
        </g>
  <text text-anchor="middle" font-family="Georgia, 'Times New Roman', serif" font-size="34" font-weight="700" fill="#2E1D18"><tspan x="360" y="110">Chocolates Mixtos</tspan></text>
  <text x="360" y="655" text-anchor="middle" font-family="Arial, sans-serif" font-size="19" font-weight="700" letter-spacing="2" fill="#3B201A" opacity=".9">CHOCOLATES</text>
</svg>