<svg xmlns="http://www.w3.org/2000/svg" viewBox="0 0 720 720" role="img" aria-label="Fresas con Crema Libre de Azúcar">
  <defs>
    <linearGradient id="bg" x1="0" y1="0" x2="1" y2="1">
      <stop offset="0" stop-color="#FFF8F1"/>
      <stop offset=".52" stop-color="#DDEBDD" stop-opacity=".78"/>
      <stop offset="1" stop-color="#FFFFFF"/>
    </linearGradient>
    <radialGradient id="glow" cx="50%" cy="52%" r="55%">
      <stop offset="0" stop-color="#FFFFFF" stop-opacity=".9"/>
      <stop offset="1" stop-color="#5F7F68" stop-opacity=".12"/>
    </radialGradient>
    <filter id="shadow" x="-20%" y="-20%" width="140%" height="140%"><feDropShadow dx="0" dy="18" stdDeviation="20" flood-color="#321832" flood-opacity=".18"/></filter>
  </defs>
  <rect width="720" height="720" rx="64" fill="url(#bg)"/>
  <circle cx="360" cy="386" r="226" fill="url(#glow)"/>
  <path d="M76 106 C192 38 322 80 438 54 C552 28 632 76 654 160" fill="none" stroke="#C9A15A" stroke-width="3" opacity=".35"/>
  <g filter="url(#shadow)">
        <ellipse cx="360" cy="552" rx="150" ry="34" fill="#2E1D18" opacity=".15"/>
        <path d="M235 442 C235 381 485 381 485 442 L465 548 C456 603 264 603 255 548 Z" fill="#DDEBDD"/>
        <path d="M235 442 C252 475 468 475 485 442" fill="none" stroke="#5F7F68" stroke-width="13" opacity=".45"/>
        <path d="M268 384 C292 342 431 342 455 384" fill="none" stroke="#5F7F68" stroke-width="10" stroke-linecap="round" opacity=".35"/>
        <path d="M265 502 C318 530 405 530 455 500" fill="none" stroke="#C9A15A" stroke-width="8" stroke-linecap="round" opacity=".9"/>
        <circle cx="315" cy="397" r="14" fill="#D94B67" opacity=".85"/>
        <circle cx="388" cy="389" r="12" fill="#D94B67" opacity=".75"/>
        <circle cx="428" cy="410" r="10" fill="#C9A15A" opacity=".8"/>
        </g>
  <text text-anchor="middle" font-family="Georgia, 'Times New Roman', serif" font-size="34" font-weight="700" fill="#2E1D18"><tspan x="360" y="110">Fresas con Crema</tspan><tspan x="360" y="148">Libre de Azúcar</tspan></text>
  <text x="360" y="655" text-anchor="middle" font-family="Arial, sans-serif" font-size="19" font-weight="700" letter-spacing="2" fill="#5F7F68" opacity=".9">LÍNEA LIBRE DE AZÚCAR</text>
</svg>