<svg xmlns="http://www.w3.org/2000/svg" viewBox="0 0 720 720" role="img" aria-label="Gelatina de Frutas">
  <defs>
    <linearGradient id="bg" x1="0" y1="0" x2="1" y2="1">
      <stop offset="0" stop-color="#FFF8F1"/>
      <stop offset=".52" stop-color="#F6D6E8" stop-opacity=".78"/>
      <stop offset="1" stop-color="#FFFFFF"/>
    </linearGradient>
    <radialGradient id="glow" cx="50%" cy="52%" r="55%">
      <stop offset="0" stop-color="#FFFFFF" stop-opacity=".9"/>
      <stop offset="1" stop-color="#9D3E77" stop-opacity=".12"/>
    </radialGradient>
    <filter id="shadow" x="-20%" y="-20%" width="140%" height="140%"><feDropShadow dx="0" dy="18" stdDeviation="20" flood-color="#321832" flood-opacity=".18"/></filter>
  </defs>
  <rect width="720" height="720" rx="64" fill="url(#bg)"/>
  <circle cx="360" cy="386" r="226" fill="url(#glow)"/>
  <path d="M76 106 C192 38 322 80 438 54 C552 28 632 76 654 160" fill="none" stroke="#C9A15A" stroke-width="3" opacity=".35"/>
  <g filter="url(#shadow)">
        <path d="M250 430 C260 330 460 330 470 430 L450 540 C443 584 277 584 270 540 Z" fill="#F6D6E8"/>
        <path d="M250 430 C275 464 445 464 470 430" fill="none" stroke="#9D3E77" stroke-width="12" opacity=".45"/>
        <circle cx="315" cy="430" r="14" fill="#C9A15A" opacity=".85"/><circle cx="385" cy="455" r="12" fill="#9D3E77" opacity=".35"/><circle cx="425" cy="405" r="10" fill="#C9A15A" opacity=".75"/>
        </g>
  <text text-anchor="middle" font-family="Georgia, 'Times New Roman', serif" font-size="34" font-weight="700" fill="#2E1D18"><tspan x="360" y="110">Gelatina de</tspan><tspan x="360" y="148">Frutas</tspan></text>
  <text x="360" y="655" text-anchor="middle" font-family="Arial, sans-serif" font-size="19" font-weight="700" letter-spacing="2" fill="#9D3E77" opacity=".9">GELATINAS</text>
</svg>