<svg xmlns="http://www.w3.org/2000/svg" viewBox="0 0 720 720" role="img" aria-label="Helado Cherry Love">
  <defs>
    <linearGradient id="bg" x1="0" y1="0" x2="1" y2="1">
      <stop offset="0" stop-color="#FFF8F1"/>
      <stop offset=".52" stop-color="#DCD3F0" stop-opacity=".78"/>
      <stop offset="1" stop-color="#FFFFFF"/>
    </linearGradient>
    <radialGradient id="glow" cx="50%" cy="52%" r="55%">
      <stop offset="0" stop-color="#FFFFFF" stop-opacity=".9"/>
      <stop offset="1" stop-color="#714F99" stop-opacity=".12"/>
    </radialGradient>
    <filter id="shadow" x="-20%" y="-20%" width="140%" height="140%"><feDropShadow dx="0" dy="18" stdDeviation="20" flood-color="#321832" flood-opacity=".18"/></filter>
  </defs>
  <rect width="720" height="720" rx="64" fill="url(#bg)"/>
  <circle cx="360" cy="386" r="226" fill="url(#glow)"/>
  <path d="M76 106 C192 38 322 80 438 54 C552 28 632 76 654 160" fill="none" stroke="#C9A15A" stroke-width="3" opacity=".35"/>
  <g filter="url(#shadow)">
        <path d="M318 472 L402 472 L360 610 Z" fill="#c58a55" opacity=".95"/>
        <path d="M292 408 C294 332 426 332 428 408 C429 456 386 487 360 488 C333 487 291 456 292 408Z" fill="#DCD3F0"/>
        <path d="M323 387 C342 358 388 358 407 389" fill="none" stroke="#714F99" stroke-width="9" stroke-linecap="round" opacity=".55"/>
        <circle cx="386" cy="383" r="9" fill="#C9A15A"/>
        </g>
  <text text-anchor="middle" font-family="Georgia, 'Times New Roman', serif" font-size="34" font-weight="700" fill="#2E1D18"><tspan x="360" y="110">Helado Cherry</tspan><tspan x="360" y="148">Love</tspan></text>
  <text x="360" y="655" text-anchor="middle" font-family="Arial, sans-serif" font-size="19" font-weight="700" letter-spacing="2" fill="#714F99" opacity=".9">HELADOS</text>
</svg>