<svg xmlns="http://www.w3.org/2000/svg" viewBox="0 0 1200 900" role="img" aria-label="Placeholder premium Gelatina">
  <defs>
    <linearGradient id="bg" x1="0" y1="0" x2="1" y2="1"><stop offset="0" stop-color="#FFF8F1"/><stop offset="1" stop-color="#F9D7EA"/></linearGradient>
    <filter id="s" x="-20%" y="-20%" width="140%" height="140%"><feDropShadow dx="0" dy="22" stdDeviation="25" flood-color="#321832" flood-opacity=".18"/></filter>
  </defs>
  <rect width="1200" height="900" fill="url(#bg)"/>
  <circle cx="180" cy="140" r="110" fill="#A84C93" opacity=".08"/>
  <circle cx="1020" cy="760" r="150" fill="#C9A15A" opacity=".12"/>
  <ellipse cx="600" cy="700" rx="335" ry="52" fill="#321832" opacity=".10"/>
  <g filter="url(#s)">
    <path d="M395 610h410l-55-250c-10-44-45-75-90-75H540c-45 0-82 31-92 75l-53 250z" fill="#A84C93" opacity=".82"/>
    <path d="M440 487c90-44 230-44 320 0" fill="none" stroke="#FFF8F1" stroke-width="30" opacity=".45"/>
    <circle cx="525" cy="405" r="30" fill="#FFF8F1" opacity=".65"/>
    <circle cx="666" cy="448" r="26" fill="#C9A15A" opacity=".75"/>
    <rect x="365" y="605" width="470" height="42" rx="21" fill="#FFF8F1"/>
  </g>
  <text x="600" y="742" text-anchor="middle" font-family="Georgia, serif" font-size="44" font-weight="700" fill="#321832">Gelatina</text>
  <text x="600" y="782" text-anchor="middle" font-family="Arial, sans-serif" font-size="18" fill="#8C6B83">PLACEHOLDER · reemplazar por fotografía oficial</text>
</svg>