<svg xmlns="http://www.w3.org/2000/svg" viewBox="0 0 1200 900" role="img" aria-label="Placeholder premium Libre de azúcar">
  <defs>
    <linearGradient id="bg" x1="0" y1="0" x2="1" y2="1"><stop offset="0" stop-color="#FFF8F1"/><stop offset="1" stop-color="#E6F0E9"/></linearGradient>
    <filter id="s" x="-20%" y="-20%" width="140%" height="140%"><feDropShadow dx="0" dy="22" stdDeviation="25" flood-color="#321832" flood-opacity=".18"/></filter>
  </defs>
  <rect width="1200" height="900" fill="url(#bg)"/>
  <circle cx="180" cy="140" r="110" fill="#5F7F68" opacity=".08"/>
  <circle cx="1020" cy="760" r="150" fill="#C9A15A" opacity=".12"/>
  <ellipse cx="600" cy="700" rx="335" ry="52" fill="#321832" opacity=".10"/>
  <g filter="url(#s)">
    <rect x="385" y="390" width="430" height="230" rx="50" fill="#FFF8F1"/>
    <path d="M475 532c84-180 234-148 262-64 20 59-41 113-103 94-49-15-78-51-159-30z" fill="#5F7F68" opacity=".88"/>
    <path d="M498 525c67-49 133-55 202-45" fill="none" stroke="#FFF8F1" stroke-width="17" stroke-linecap="round" opacity=".7"/>
    <circle cx="610" cy="371" r="22" fill="#C9A15A" opacity=".75"/>
  </g>
  <text x="600" y="742" text-anchor="middle" font-family="Georgia, serif" font-size="44" font-weight="700" fill="#321832">Libre de azúcar</text>
  <text x="600" y="782" text-anchor="middle" font-family="Arial, sans-serif" font-size="18" fill="#8C6B83">PLACEHOLDER · reemplazar por fotografía oficial</text>
</svg>