<svg xmlns="http://www.w3.org/2000/svg" viewBox="0 0 1200 900" role="img" aria-label="Placeholder premium Chocolate">
  <defs>
    <linearGradient id="bg" x1="0" y1="0" x2="1" y2="1"><stop offset="0" stop-color="#FFF8F1"/><stop offset="1" stop-color="#F1D8C8"/></linearGradient>
    <filter id="s" x="-20%" y="-20%" width="140%" height="140%"><feDropShadow dx="0" dy="22" stdDeviation="25" flood-color="#321832" flood-opacity=".18"/></filter>
  </defs>
  <rect width="1200" height="900" fill="url(#bg)"/>
  <circle cx="180" cy="140" r="110" fill="#3A231D" opacity=".08"/>
  <circle cx="1020" cy="760" r="150" fill="#C9A15A" opacity=".12"/>
  <ellipse cx="600" cy="700" rx="335" ry="52" fill="#321832" opacity=".10"/>
  <g filter="url(#s)">
    <rect x="370" y="398" width="460" height="210" rx="44" fill="#FFFFFF"/>
    <path d="M370 445c70 34 110-30 175 0s110-30 175 0 80-10 110-4v-48c0-25-20-45-45-45H415c-25 0-45 20-45 45v52z" fill="#3A231D" opacity=".9"/>
    <rect x="390" y="512" width="420" height="22" rx="11" fill="#C9A15A" opacity=".55"/>
    <rect x="390" y="562" width="420" height="20" rx="10" fill="#3A231D" opacity=".35"/>
    <circle cx="470" cy="345" r="26" fill="#C7445A"/>
    <circle cx="600" cy="332" r="24" fill="#C7445A"/>
    <circle cx="727" cy="346" r="24" fill="#C7445A"/>
    <path d="M440 365c90-43 225-46 320 0" fill="none" stroke="#FFF8F1" stroke-width="22" stroke-linecap="round"/>
  </g>
  <text x="600" y="742" text-anchor="middle" font-family="Georgia, serif" font-size="44" font-weight="700" fill="#321832">Chocolate</text>
  <text x="600" y="782" text-anchor="middle" font-family="Arial, sans-serif" font-size="18" fill="#8C6B83">PLACEHOLDER · reemplazar por fotografía oficial</text>
</svg>